<?xml version="1.0" encoding="utf-8"?>
<!-- Generator: Adobe Illustrator 22.0.1, SVG Export Plug-In . SVG Version: 6.00 Build 0)  -->
<svg version="1.1" id="Livello_1" xmlns="http://www.w3.org/2000/svg" xmlns:xlink="http://www.w3.org/1999/xlink" x="0px" y="0px"
	 viewBox="0 0 841.9 591.9" style="enable-background:new 0 0 841.9 591.9;" xml:space="preserve">
<style type="text/css">
	.st0{fill:#EF3C23;stroke:#FFFFFF;stroke-miterlimit:10;}
	.st1{fill:#C7202E;stroke:#FFFFFF;stroke-width:4;stroke-miterlimit:10;}
	.st2{fill:#FFFFFF;}
	.st3{font-family:'MyriadPro-Regular';}
	.st4{font-size:45px;}
	.st5{letter-spacing:5;}
	.st6{font-family:'CenturyGothic';}
	.st7{font-size:17px;}
</style>
<rect y="1" class="st0" width="841.9" height="591.9"/>
<line class="st1" x1="170.9" y1="201.4" x2="170.9" y2="98.4"/>
<line class="st1" x1="168.9" y1="199.8" x2="272.2" y2="199.8"/>
<line class="st1" x1="271.2" y1="203.4" x2="271.2" y2="98.4"/>
<line class="st1" x1="220.5" y1="181.4" x2="220.5" y2="110.4"/>
<line class="st1" x1="271.2" y1="476.8" x2="271.2" y2="199.8"/>
<line class="st1" x1="271.2" y1="199.8" x2="547.9" y2="199.8"/>
<line class="st1" x1="547.5" y1="477.8" x2="547.5" y2="353.4"/>
<text transform="matrix(1 0 0 1 178.5338 164.9437)" class="st2 st3 st4">K</text>
<text transform="matrix(1 0 0 1 310.2005 327.777)" class="st2 st3 st4 st5">KITCHENONLINE</text>
<g>
	<text transform="matrix(1 0 0 1 311.2007 365.7773)" class="st2 st6 st7">Risparmia</text>
</g>
<text transform="matrix(1 0 0 1 398.1454 364.777)" class="st2 st6 st7">e</text>
<g>
	<text transform="matrix(1 0 0 1 417.867 365.777)" class="st2 st6 st7">Arreda</text>
</g>
<line class="st1" x1="269.2" y1="475.8" x2="547.9" y2="475.8"/>
<line class="st1" x1="168.9" y1="98.4" x2="273.2" y2="98.4"/>
<line class="st1" x1="547.9" y1="269.4" x2="547.9" y2="197.8"/>
</svg>
